<svg id="Group_173" data-name="Group 173" xmlns="http://www.w3.org/2000/svg" viewBox="0 0 132 47.715"><defs><clipPath id="clip-path"><path id="Path_269" data-name="Path 269" d="M0-10.007h132v-47.715H0z" transform="translate(0 57.722)" fill="none"/></clipPath><style>.cls-2{fill:#424244}.cls-4{fill:#ff422e}</style></defs><g id="Group_155" data-name="Group 155" transform="translate(49.968 .689)"><path id="Path_253" data-name="Path 253" class="cls-2" d="M-1.007-.729h-4.8v-3.478H8.019v3.478h-4.8v15.873h-4.226z" transform="translate(5.811 4.207)"/></g><g id="Group_171" data-name="Group 171" clip-path="url(#clip-path)"><g id="Group_156" data-name="Group 156" transform="translate(63.219 4.167)"><path id="Path_254" data-name="Path 254" class="cls-2" d="M-2.53-1.083v6.239c0 .883.331 1.27 1.076 1.27h.442V9.3a3.8 3.8 0 01-2.071.524A2.889 2.889 0 01-5.9 8.137h-.111a4.655 4.655 0 01-3.972 1.739 4.257 4.257 0 01-4.61-4.306c0-3.588 3.23-5.245 8.143-5V-.641A1.979 1.979 0 00-8.686-2.9a2.744 2.744 0 00-2.677 1.767l-2.954-2.181a6.45 6.45 0 015.6-2.926c3.974 0 6.183 1.38 6.183 5.162M-6.45 3.389c-2.732-.193-4.085.442-4.085 1.795A1.5 1.5 0 00-8.851 6.7a3.024 3.024 0 002.4-1.1z" transform="translate(14.593 6.245)"/></g><g id="Group_157" data-name="Group 157" transform="translate(78.098 4.111)"><path id="Path_255" data-name="Path 255" class="cls-2" d="M-2.009-.892A9.866 9.866 0 00-3.8-1.03 6.1 6.1 0 00-7.447.213v10.572h-4.141v-15.6h3.258l.856 2.291h.111a4.15 4.15 0 014.03-2.623A6.462 6.462 0 01-2.009-5z" transform="translate(11.588 5.143)"/></g><g id="Group_158" data-name="Group 158" transform="translate(88.064 4.167)"><path id="Path_256" data-name="Path 256" class="cls-2" d="M0-1.708c0-4.8 2.014-8.143 7.177-8.143 5.383 0 7.067 3.2 7.067 8.033 0 4.8-2.043 8.143-7.2 8.143C1.683 6.325 0 3.123 0-1.708m7.177 4.776c2.126 0 2.788-1.546 2.788-4.72 0-3.23-.8-4.942-2.954-4.942-1.9 0-2.732 1.546-2.732 4.721 0 3.23.8 4.941 2.9 4.941" transform="translate(0 9.851)"/></g><g id="Group_159" data-name="Group 159" transform="translate(52.121 23.009)"><path id="Path_257" data-name="Path 257" class="cls-2" d="M-2.808-1.2c0 3.616-1.9 6.735-7.564 6.735h-1.6V12.4H-16.2V-6.946h6.625c3.92 0 6.763 1.463 6.763 5.742m-9.165-2.181v5.466h1.38c2.815 0 3.423-1.215 3.423-2.706 0-1.9-.939-2.76-3.092-2.76z" transform="translate(16.196 6.946)"/></g><g id="Group_160" data-name="Group 160" transform="translate(66.421 26.763)"><path id="Path_258" data-name="Path 258" class="cls-2" d="M0 0h4.169v10.076c0 1.711.827 2.595 2.236 2.595a2.858 2.858 0 002.7-1.877V0h4.169v15.6h-3.53l-.579-1.435h-.11A4.9 4.9 0 014.942 15.9C1.6 15.9 0 14.161 0 10.462z"/></g><g id="Group_161" data-name="Group 161" transform="translate(81.631 26.404)"><path id="Path_259" data-name="Path 259" class="cls-2" d="M-3.549 0c3.064 0 4.8 1.628 4.8 5.19v10.766h-4.165V5.935c0-1.822-.938-2.429-2.015-2.429A2.909 2.909 0 00-7.524 5.3v10.656h-4.168V6.239c0-1.822-.773-2.733-2.209-2.733a2.782 2.782 0 00-2.4 1.85v10.6h-4.169V.359h3.424l.69 1.463h.11A5.177 5.177 0 01-12.134 0c2.374 0 3.34.994 3.893 2.1h.11A5.631 5.631 0 01-3.549 0" transform="translate(20.471)"/></g><g id="Group_162" data-name="Group 162" transform="translate(105.29 26.487)"><path id="Path_260" data-name="Path 260" class="cls-2" d="M-1.372-3.346a10.669 10.669 0 01-2.4-.249v5.521h-4.142v-20.952h3.064l.884 1.325h.11A4.728 4.728 0 01-.13-19.3c3.423 0 5.769 2.568 5.769 7.426 0 5.742-3.257 8.53-7.011 8.53m-.5-3.368c2.015 0 3.258-1.159 3.258-4.8 0-3.092-1.3-4.417-2.926-4.417a2.73 2.73 0 00-2.291 1.187v7.564a4.469 4.469 0 001.96.47" transform="translate(7.914 19.302)"/></g><g id="Group_163" data-name="Group 163" transform="translate(119.495 26.487)"><path id="Path_261" data-name="Path 261" class="cls-2" d="M-.214-1.013c0-2.539 2.181-4.831 5.8-4.831a7.106 7.106 0 015.631 2.181L8.536-1.04A4.16 4.16 0 005.472-2.5c-.938 0-1.546.5-1.546 1.214 0 2.346 7.343 1.518 7.343 6.735 0 2.07-1.628 4.858-6.156 4.858a8.648 8.648 0 01-6.349-2.349l2.485-2.871A5.688 5.688 0 005.334 7.02c1.3 0 1.794-.608 1.794-1.325 0-2.264-7.342-1.519-7.342-6.708" transform="translate(1.236 5.844)"/></g><g id="Group_164" data-name="Group 164" transform="translate(18.296)"><path id="Path_262" data-name="Path 262" class="cls-4" d="M-1.022-3.618l2.693-16.923a.059.059 0 00-.018 0 22.335 22.335 0 00-3.77-.322 22.343 22.343 0 00-3.773.322l2.664 16.923A25.958 25.958 0 01-3.013.52v21h1.775v-21a25.568 25.568 0 01.217-4.138" transform="translate(5.893 20.867)"/></g><g id="Group_165" data-name="Group 165" transform="translate(7.48 1.55)"><path id="Path_263" data-name="Path 263" class="cls-4" d="M-2.532-2.876l-.394-.965-5.227-12.748a.087.087 0 00-.021.011l-.174.069a22.117 22.117 0 00-6.252 3.88c.036.045 8.745 10.04 8.745 10.04C-3.326.04-3.469 4.268-3.469 4.268v19.978h1.776V4.125c0-5.345-.838-7-.838-7" transform="translate(14.603 16.589)"/></g><g id="Group_166" data-name="Group 166" transform="translate(.977 8.834)"><path id="Path_264" data-name="Path 264" class="cls-4" d="M-3.19-1.8a3.821 3.821 0 00-.715-.678L-14.547-10.1l-.421-.3-.009.012c-.141.188-.278.377-.412.57A21.99 21.99 0 00-18.4-3.685C-18.208-3.625-4.729.591-4.676.61c.15.057 1.346.413 1.346 2.483v20.054h1.775V3.227A7.507 7.507 0 00-3.19-1.8" transform="translate(18.4 10.405)"/></g><g id="Group_167" data-name="Group 167" transform="translate(0 20.042)"><path id="Path_265" data-name="Path 265" class="cls-4" d="M-2.794-.117a4857.66 4857.66 0 00-13.231-.555 22.582 22.582 0 00-.086 2.517 21.911 21.911 0 00.683 4.994.037.037 0 000 .012c.023-.008 10.42-3.265 10.914-3.424a5.578 5.578 0 01.9-.242.825.825 0 01.637.136 1.148 1.148 0 01.342.9v17.451h1.777V2.261S-.768.01-2.794-.117" transform="translate(16.118 .672)"/></g><g id="Group_168" data-name="Group 168" transform="translate(23.754 1.551)"><path id="Path_266" data-name="Path 266" class="cls-4" d="M-.873-2.936l8.743-10.04a22.045 22.045 0 00-6.249-3.878 3.731 3.731 0 00-.174-.071.053.053 0 00-.021-.009L-4.2-3.224s-.838 1.657-.838 7V23.9h1.776V3.921S-3.406-.307-.873-2.936" transform="translate(5.035 16.935)"/></g><g id="Group_169" data-name="Group 169" transform="translate(26.319 8.833)"><path id="Path_267" data-name="Path 267" class="cls-4" d="M-.654-2.31C-.6-2.329 12.881-6.543 13.071-6.6a21.99 21.99 0 00-3.011-6.138 20.277 20.277 0 00-.412-.571l-.009-.012L-1.423-5.4a3.894 3.894 0 00-.717.677A7.508 7.508 0 00-3.773.307v19.92H-2V.174C-2-1.9-.8-2.252-.654-2.31" transform="translate(3.773 13.325)"/></g><g id="Group_170" data-name="Group 170" transform="translate(28.884 20.043)"><path id="Path_268" data-name="Path 268" class="cls-4" d="M-3.18 0c-.824.03-12.835.529-13.23.554-2.027.127-1.933 2.378-1.933 2.378V22.34h1.769V4.888a1.154 1.154 0 01.343-.9.84.84 0 01.637-.138 5.231 5.231 0 01.9.245c.493.163 10.764 3.4 10.908 3.445 0-.011 0-.021.006-.032a21.8 21.8 0 00.68-4.99c0-.164.008-.328.008-.5 0-.68-.032-1.356-.093-2.024" transform="translate(18.345 .002)"/></g></g><g id="Group_172" data-name="Group 172" transform="translate(100.262 .689)"><path id="Path_270" data-name="Path 270" class="cls-2" d="M0 0h2.606v.493h-.987v2.972h-.607V.493H0zm6.222.608l-.936 2.617h-.544L3.794.556h-.051l.013 1.126v1.8h-.57V0h.974l.861 2.529L5.868 0h.974v3.478h-.594v-1.8l.024-1.07z"/></g></svg>